<?xml version="1.0" encoding="UTF-8"?>
<svg id="Layer_2" data-name="Layer 2" xmlns="http://www.w3.org/2000/svg" xmlns:xlink="http://www.w3.org/1999/xlink" viewBox="0 0 938.83 678.09">
  <defs>
    <style>
      .cls-1, .cls-2, .cls-3, .cls-4, .cls-5 {
        stroke-width: 0px;
      }

      .cls-1, .cls-6 {
        fill: none;
      }

      .cls-7 {
        clip-path: url(#clippath-1);
      }

      .cls-2 {
        fill: #46627d;
      }

      .cls-8 {
        clip-path: url(#clippath);
      }

      .cls-3 {
        fill: #556080;
      }

      .cls-9, .cls-10 {
        fill: #ccc;
      }

      .cls-4 {
        fill: #801820;
      }

      .cls-10, .cls-6 {
        stroke: #fff;
        stroke-miterlimit: 10;
        stroke-width: 1.63px;
      }

      .cls-5 {
        fill: #5a5a5a;
        fill-rule: evenodd;
        opacity: .84;
      }
    </style>
    <clipPath id="clippath">
      <rect class="cls-1" y="3.71" width="841.89" height="595.28"/>
    </clipPath>
    <clipPath id="clippath-1">
      <path class="cls-10" d="m936.01,248.03c-8.5,1.48-7.18-17.05-14.9-21.32-3.6-1.99-8.44-1.12-11.88-3.1-3.76-2.16-12.08-11.79-13.31-15.7-2.55-8.17,7.41-13.46,6.46-21.21-.94-7.66-6.48-6.95-11.98-8.75-7.2-2.35-6.33-6.59-9.28-13.09-1.73-3.83-4.5-7.12-6.01-10.95-1.7-4.31.08-4.24-.07-7.31-.31-6.46-4.75-5.45-5.82-11.76-.81-4.79,1.55-5.12,2.72-9.04,1.57-5.26,1.79-12.45.94-17.87-1.33-8.47-4.18-22.93-13.61-23.75-5.75-.5-9.4-1.16-15.19-3.08-3.82-1.27-7.01-4.05-10.63-5.07-3.74-1.06-7.09,1.3-10.48,1.32-5.54.03-11.12-2.35-15.6-4.36-8.34-3.74-9.16-.97-15.72,3.22-5.04,3.22-9.36,2.45-13.68,6.88-2.47,2.53-7.97,7.82-9.52,10.95-.94,1.89.29,5.06-.4,6.39-2.85,5.5-4.15,1.33-7.56,1.97-10.65,2-21.8,14.33-33.11,9.97-2.66-1.03-5.53-3.27-8.1-4.56-3.03-1.53-6.06-5.08-8.42-6.14-3.26-1.47-7.76.75-11.01-.65-3.67-1.58-3.91-5.09-6.37-8.12-.77-.95-.48-2.34-.88-3.51-.32-.93-.41-2-.73-2.89-1.12-3.06-2.05-1.68-4.19-.71-1.2-.98-1.95-2.4-3.28-3.2-1.14-.68-2.64-1.11-3.67-2-3.58-3.09,2.46-2.74,1.93-5.2-.37-1.73-5.32-.75-4.2-4.07.46-1.36,2.86-.93,2.4-2.8-.3-1.23-3.98-3.62-5.04-4.08-2.47-1.08-4.18,1.07-6.11,2.68-3.24,2.72-5.51,5.89-8.25,9.06-1.2,1.38-2.56,3.33-4.23,4.17-2.4,1.2-5.78.36-8.24-.05-2.07-.35-4.48-.29-6.47-.97-1.86-.63-3.01-2.1-4.47-3.38-1.53-1.34-2.99-2.55-4.31-4.09-.91-1.06-1.46-2.53-2.42-3.46-.19-.18-.4-.33-.61-.45.26-.22.48-.48.62-.8-2.68-.92-3.67-3.07-6.54-3.8-2.33-.59-4.04.26-6.37.15-7.77-.38-1.5-14.63-5.83-18.9-1.53-1.51-5.54-1.27-7.81-2.78-2.72-1.81-4.32-5.35-6.39-3.07-2.99,3.29-4.03,2.11-8.74,1.8-4.03-.27-7.03,1.2-10.71,3.21-3.15,1.72-5.8,4.29-8.93,6.01-2.92,1.6-5.45,1.5-8.8,1.28-2.52-.17-5.01-.98-7.53-.4-2.85.66-5.32,2.52-8.27,3.03-4.42.76-13.48.18-17.04-2.57-1.72-1.33-1.7-3.72-4.17-4.71-1.91-.76-3.63-.08-5.57-.07-4.75.04-5.6-1.46-7.54-4.8-2.31-3.98-5.35-1.34-9.21-1.94-1.65-.26-4.65-1.5-5.4-3.04-.43-.88.58-2.68-.01-3.44-1.55-1.96-6.26.52-8.09.77-4.75.65-9.95-.83-14.61.2-4.21.93-8.75,3.17-12.72,4.9-6.55,2.84-15.04,9.85-22.65,8.27-2.86-.59-4.25-1.99-7.12-1.66-2.27.26-3.85.97-6.32.87-2.19-.09-4.36-.19-6.58-.08-2.33.12-6.95-.27-4.36,3.55,1.41,2.08,4.39,1.26,6.43,2.57,2.7,1.74,2.19,2.28-.81,3.12-3.06.86-5.95-.21-8.28,2.27.83.71,2.21,1.06,2.92,1.94-2.25,1.57-5.3.68-7.84.56-2.92-.13-5.97.79-8.77.54.48-3.47-1.99-.92-3.03-.55-.63.23-3.08.82-3.61.71-2.1-.44-.45-.59-1.58-1.25-.1-.06-.49-1.05-.71-1.27-.41-.4-1.4-.05-1.92-.3-1.26-.58-2.33-1.33-3.74-1.12-2.42.37-7.22,4.61-8.45,6.43-1.02,1.51-2.51,4.82-2.62,6.65-.14,2.26-.05,1.95,1.98,2.9,2.13,1,2.15-.16,4.17.2,1.48.26,2.42.23,2.27,2.22-2.21.91-1.82,8.27.36,9.07-1.47,1.54-2.92,1.34-2.81,3.94.06,1.51,2.31,3.33,2.23,4.65-.2,3.22-4.82,3.71-5.63.45-3.29,1.14,3.58,5.65,4.49,6.47,1.53,1.38,4.05,1.96,3.11,4.72-.36,1.06-1.74.56-1.94,1.23-.25.86.58,1.11.5,1.76-.12.89-.29,3.25.08,4.01.85,1.76,2.54,1.16,3.63,2.56,2.14,2.77-.89,1.01-1.17,2.86-.37,2.43,2.48,1.48,3.96,1.7,2.32.35,4.54,1.42,7.01,1.73-.47,2.12-2.47,1.91-3.66,3.33.93.81,2.2,1.93,3.41,2.52,4.37-4.56,9.52.24,14.03,1.48-.1,4.81,3.53,8.31,8.22,8.68,2.11.16,4.17-.92,6.34-.84,1.78.07,3.35.88,5.16.51.56-1.87,1.61-3.55,2.02-5.44.55-2.55-.1-5.27,2.82-6.06,4.11-1.11,10.31,1.58,13.8,3.46,3.32,1.78,6.42,5.53,8.86,8.23.95,1.05,2.23,3.16,3.66,3.79,2.5,1.1,5.09-.84,7.47-1.47,4.57-1.21,9.54-.41,13.51-3.31,4.84-3.53,6.53-7.87,12.81-6.16,3.49.95,7.47,3.03,10.91,1.09,1.56-.88,6.92-7.61,8.11-2.54.72,3.06-4.52,5.55-4.81,8.31-.11,1.09,1.14,2.81,1.46,3.91.27.93.44,1.92.51,2.92-.95,1.06-2.06,4.55-1.91,6.81.14,2.07,1.47,3.69,1.4,5.91-.09,2.7-.4,3.47.34,6.04.52,1.8.86,3.61,1.16,5.46-.19.02-.37.05-.51.15-.52.36-.87,1.78-1.23,2.3-2.04,2.91-5.17,3.95-4.8,7.78.17,1.77.64,2.08-.19,3.96-1.03,2.31-2.13,4.52-3.05,6.86-.81,2.06-1.85,3.98-2.73,5.98-.1.23-.26.58-.43.99-.11.1-.22.19-.32.32-1.48,1.94-1.94,5.43-2.53,7.75-.4,1.59-1.09,3.19-1.53,4.81-.71,1.08-1.13,3.29-1.31,3.89-1,3.4-2.35,6.36-4.17,9.41-1.32,2.22-3.53,3.85-4.66,6.09-.08.17-.18.34-.28.5-1.49-.1-2.89,1.98-5.44,2.34-5.04.73-12.03.08-15.15.11-4.03.03-5.89-1.57-9.51-1.87-.02.92-.88,2.19-1.78,2.1-2.06-.72-4.65-2.27-5.73-4.78-.94-2.18,2.8-1.55-.4-4.3-2.31-1.98-5.16.74-7.38.93-6.51.57-12.92,2.6-19.13,4.32-6.05,1.68-12.46,7.96-18.91,7.19-4.29-.51-7.11-4.7-11.25-6.28-3.84-1.47-6.5-2.25-10.2-4.08-4.26-2.11-8.49-3.98-13.32-4.55-5.47-.64-10.19-.79-15.39-1.9-1.74-.37-3.98-.44-5.52-.74-1.64-.31-.53-3.66-4.36-1.28-5.31,3.3-.31,13.72-1.41,18.68-1.15,5.17-3.56,6.37-2.5,12.21,3.93,21.52-2.95,105.3-3.64,110.92-.95,7.66-1.66,15.72-2.02,23.38-.21,4.43-.77,7.4,2.47,9.87,4.29,3.27,16.76,3.81,22.1,3.97,18.79.55,38.06-2.54,56.99-2.54,5.59,0,13.19,2.1,18.24,1.39,1.42-.2,4.14-3.14,5.63-2.67,3.03.96.35,2.66,1.87,4.1,1.78,1.69,0,1.52,2.83,2.85,3.13,1.46,12.67-1.73,16.3-2.06,13.75-1.26,28.16-1.09,41.97-1.1,9.53,0,18.37,2.87,27.92,2.43,2.3-7.37-14.18-14.07-17.49-19.22-1.1-1.72-4.21-7.33-4.32-9.27-.16-2.71,1.49-2.43,1.73-4.36.75-6.13.23-4.07-4.54-8.82-5.96-5.94-5.33-14.8-9.6-21.64-4.59-7.37-11.77-14.03-15.29-21.98-1.92-4.33-2.28-9.71-3.56-14.35-1.88-6.79-3.9-8.7-8.64-13.87-2.09-2.28-4.55-12.21-6.87-19.45-1.95-6.1-4.27-9.71-1.58-11.09,2.6,2.74,2.49,6.51,4.19,9.36,2.46,4.14,4.75,5.83,6.41,10.8,2.71,8.13,9.32,15.28,17.47,19.16,2.48-7.64,2.72-11.91,5.72-19.31,1.24-3.06,2.29-9.22,2.83-11.38.02-.07.03-.16.04-.24.26.06.55.11.85.15.05.18.09.36.14.53-1.2,6.46-.73,14.3-1.92,19.73-.37,1.7-3.47,5.56-1.66,6.97,1.72,1.35,3.91-1.63,5.59-1.08,1.5.49,3.81,4.93,4.91,6.16,2.02,2.25,4.08,4.46,6.42,6.46,6.38,5.44,9.18,12.99,13.4,20.06,3.05,5.11,6.34,9.91,9.38,15.08,2.79,4.76,1.97,9.87,4.27,14.27,2.68,5.1,9.76,8.53,13.65,12.66,4.61,4.9,10.66,8.87,13.88,14.74,1.75,3.19,4.43,8.3,4.26,12.09-.14,3.25-2.04,5.41-1.09,8.83.86,3.11,2.58,5.55,2.61,9.21.02,2.53-1.4,6.01,1.14,7.66,5.89,3.82,5.12,11.15,11.81,13.11,7.03,2.06,12.17,7.46,15.59,13.96,4.38,8.32,6.97,15.03,13.9,21.45,4.57,4.24,8.73,9.58,12.54,14.38,3.11,3.93,6.63,7.74,9.51,11.56.24.32.43.65.6.98-.04,6.92-.05,13.55.53,20.6.33,4,1.03,5.33,2.62,8.9,2.06,4.61,1.73,9.6,3.28,14.31,1.09,3.32,3.7,5.83,4.63,8.91,1.06,3.51-.45,6.61.14,10.09,1.73,10.24,15.63,4.61,22.68,2.41,6.59-2.06,14.11-4.42,19.41-9.05,4.12-3.6,4.27-4.97,10.15-6.04,9.56-1.75,18-4.72,25.88-11.04,6.51-5.23,15.26-2.9,22.42-9.44,3.22-2.95,4.11-6.86,7.64-9.78,6.2-5.14,15.49-8.75,22.74-12.23,5.46-2.61,12.55-6.01,16.07-11.14,2.14-3.11,2.73-7.21,5.58-10.05,7.92-7.91,10.97-8.32,10.97-8.32-.04-.1-.09-.21-.13-.32,3.08-1.24,6.13-3.05,8.84-4.19,4.58-1.94,7.16-4.61,12.34-5.11,4.13-.4,10.47-.41,12.2-5.25,1.43-4-.65-6.95,2.63-10.77,2.2-2.56,4.88-4.51,8.06-5.72,2.73-1.03,5.86-.97,8.01-3.26,2.74-2.92,3.97-8.09,5.48-11.54,2.42-5.52,7.84-5.82,12.48-8.66,4.96-3.04,2.16-3.51.96-7.65-1.24-4.29.5-11.62.97-16.06.18-1.64,3.77-9.57,4.77-4.49,5.7,1.07,6.79-11.48,7.99-14.78,3.09-8.48,10.49-15.08,10.02-24.93-.18-3.76-.75-2.54-3.8-4.07-2.94-1.48-3.01-3.59-4.86-6.14-2.07-2.84-7.25-7.99-10.73-8.84-2.43-.6-5.59.24-8.02.35-3.3.15-6.57-.11-9.81.34-6.96-2.33-12.62-4.35-17.48-10.07-6.01-7.09-5.62-11.04-6.04-20.27-.1-2.3.59-8.38-1.43-9.92-3.06-2.33-3.86,2.97-5.01,5.01-.99,1.76-1.37,2.74-1.58,3.95-1.86,1.97-3.73,5.73-4.46,6.8-1.49,2.17-2.44,4.68-3.92,6.86-2.17,3.22-5.57,5.53-7.65,8.6-1.07,1.59-.94,3.14-1.41,5.05-.68,2.8-1.51,3.09-4.04,4.41-3.21,1.67-5.34,4.43-8.85,5.44-2.99.86-6.24,1.04-9.31,1.33-3.39.32-7.17.48-10.27,2.02-2.32,1.16-4.04,3.61-6.68,3.95-2.82.36-4.28-2.72-6.53-3.18-.6-1.51-.1-2.7-2.19-3.49-2.84.3-1.49-.16-3.12-2.05-.21-.24-.43-.42-.66-.58,1.13-1.2,1.89-3.05,2.38-4.47,1.06-3.12,1.86-6.05.31-9.14-.57-1.14-1.62-2.02-1.94-3.3-.32-1.29.23-2.58.27-3.86.07-2.1-.99-2.3-2.14-3.74-.74-.92-1-2.15-1.93-2.89-5.67-4.57-6.56,8.69-7.52,11.38-1.16,3.23.59,5.2.8,8.37.07,1.07-.32,2.07-.44,3.1-.48-.69-.97-1.37-1.5-1.92-1.6-1.65-3.61-2.79-5.18-4.47-2.03-2.17-4.07-6.41-4.96-9.28-1.64-5.28,1.32-10.44-1.83-15.18-2.33-3.51-5.5-3.28-8.84-5.37-3.43-2.15-7.58-4.79-10.23-7.83-1.17-1.34-2.16-2.06-3.55-3.11-1.7-1.29-2.18-2.79-3-4.72-1.16-2.74-1.94-5.76-4-7.86-.14-2.05-.56-4.01-1.66-5.62-1.71-2.48-3.57-5.49-5.5-7.68-.72-.82-1.42-1.47-2.5-1.82-1.09-.35-3.07.6-3.72-.56-1.27-2.25,3.59-4.58,4.99-4.92.95-.23,2.76.26,2.76-1.42,0-1.48-1.7-1.13-2.53-1.76-.12-.09-.22-.19-.32-.29.17-.82.3-1.66.68-2.12.79-.96,1.73-.55,2.65-1.07,2.22-.05,4.42-.44,5.82-1.28,2.95-1.76,2.55-5.43,6.25-5.18,3.18.21,2.86,4.22,6.91,3.93,1.47-.11,4.82-3.18,6.22-3.98,5.6,4.61,14.13,10.55,13.84,18.09,5.86,1.2,4.52,5.46,7.25,9.62,1.8,2.74,4.03,3.92,5.86,7.11,1.89,3.3.28,3.79,3.97,5.24,2.33.92,5.68-.61,8.13,0,3.29.81,3.15,1.56,5.94,3.49,5.69,3.94,11.86,3.15,18.74,5.73,6.15,2.3,10.75,3.93,17.5,2.66,9.47-1.79,14.55-11.69,23.99-14.96,20.23-7.02,8.98,19.71,23.62,22.49,4.24.81,9.73-1.7,13.97-1.59,3.85.1,7.07,1.39,11.09.84,4.05-.56,8.86-1.78,13.44-2.27,3.06-.33,5.56-.36,7.8-2.54,1.96,2.54,10.1,4.26,13,2.31,5.56-3.74.77-14.65,2.47-19.79,1.2-3.63,1.21-2.58,4.53-5.13,2.77-2.12,4.34-4,6.95-6.21,1.35-1.14,5.1-1.39,5.93-3.28.66-1.51-1.74-4.79-1.89-6.64Z"/>
    </clipPath>
  </defs>
  <g id="Layer_1-2" data-name="Layer 1">
    <g class="cls-8">
      <g>
        <path class="cls-10" d="m410.07,156.48c-1.38.02-3.69-.1-4.9.47-.59.28-1.06,1.36-1.63,1.79-.4.3-2.34,1.05-2.53,1.35-1.22,1.95,1.4,4.91,3.43,5.76,1.82.76,3.82-.04,5.64.41,1.36.34,1.94,1.47,3.22,1.91,2.72.93,4.44-1.98,6.54-3.18,2.84-1.62,5.3-3.14,8.24-3.85,1.82-.44,2.63.19,2.1-2.2-.24-1.09,1.1-1.63,1.08-2.94-.04-2.77,8.3-3.95,6.72-6.44-.9-1.42-10.33,2.5-11.75,2.98-3.55,1.2-11.56-.73-13.12,1.45-.26.36-.68,2.29-3.04,2.5Z"/>
        <path class="cls-10" d="m697,302.03c-1.35-.53-2.51,1.14-2.67,2.27-.18,1.27.33,3.03.52,4.32.18,1.26,1.08,3.75,2.38,1.83.71-1.04.46-2.72.6-3.94.1-.86.45-1.91.31-2.78-.12-.8-.63-1.43-1.14-1.7Z"/>
        <g>
          <path class="cls-9" d="m936.01,248.03c-8.5,1.48-7.18-17.05-14.9-21.32-3.6-1.99-8.44-1.12-11.88-3.1-3.76-2.16-12.08-11.79-13.31-15.7-2.55-8.17,7.41-13.46,6.46-21.21-.94-7.66-6.48-6.95-11.98-8.75-7.2-2.35-6.33-6.59-9.28-13.09-1.73-3.83-4.5-7.12-6.01-10.95-1.7-4.31.08-4.24-.07-7.31-.31-6.46-4.75-5.45-5.82-11.76-.81-4.79,1.55-5.12,2.72-9.04,1.57-5.26,1.79-12.45.94-17.87-1.33-8.47-4.18-22.93-13.61-23.75-5.75-.5-9.4-1.16-15.19-3.08-3.82-1.27-7.01-4.05-10.63-5.07-3.74-1.06-7.09,1.3-10.48,1.32-5.54.03-11.12-2.35-15.6-4.36-8.34-3.74-9.16-.97-15.72,3.22-5.04,3.22-9.36,2.45-13.68,6.88-2.47,2.53-7.97,7.82-9.52,10.95-.94,1.89.29,5.06-.4,6.39-2.85,5.5-4.15,1.33-7.56,1.97-10.65,2-21.8,14.33-33.11,9.97-2.66-1.03-5.53-3.27-8.1-4.56-3.03-1.53-6.06-5.08-8.42-6.14-3.26-1.47-7.76.75-11.01-.65-3.67-1.58-3.91-5.09-6.37-8.12-.77-.95-.48-2.34-.88-3.51-.32-.93-.41-2-.73-2.89-1.12-3.06-2.05-1.68-4.19-.71-1.2-.98-1.95-2.4-3.28-3.2-1.14-.68-2.64-1.11-3.67-2-3.58-3.09,2.46-2.74,1.93-5.2-.37-1.73-5.32-.75-4.2-4.07.46-1.36,2.86-.93,2.4-2.8-.3-1.23-3.98-3.62-5.04-4.08-2.47-1.08-4.18,1.07-6.11,2.68-3.24,2.72-5.51,5.89-8.25,9.06-1.2,1.38-2.56,3.33-4.23,4.17-2.4,1.2-5.78.36-8.24-.05-2.07-.35-4.48-.29-6.47-.97-1.86-.63-3.01-2.1-4.47-3.38-1.53-1.34-2.99-2.55-4.31-4.09-.91-1.06-1.46-2.53-2.42-3.46-.19-.18-.4-.33-.61-.45.26-.22.48-.48.62-.8-2.68-.92-3.67-3.07-6.54-3.8-2.33-.59-4.04.26-6.37.15-7.77-.38-1.5-14.63-5.83-18.9-1.53-1.51-5.54-1.27-7.81-2.78-2.72-1.81-4.32-5.35-6.39-3.07-2.99,3.29-4.03,2.11-8.74,1.8-4.03-.27-7.03,1.2-10.71,3.21-3.15,1.72-5.8,4.29-8.93,6.01-2.92,1.6-5.45,1.5-8.8,1.28-2.52-.17-5.01-.98-7.53-.4-2.85.66-5.32,2.52-8.27,3.03-4.42.76-13.48.18-17.04-2.57-1.72-1.33-1.7-3.72-4.17-4.71-1.91-.76-3.63-.08-5.57-.07-4.75.04-5.6-1.46-7.54-4.8-2.31-3.98-5.35-1.34-9.21-1.94-1.65-.26-4.65-1.5-5.4-3.04-.43-.88.58-2.68-.01-3.44-1.55-1.96-6.26.52-8.09.77-4.75.65-9.95-.83-14.61.2-4.21.93-8.75,3.17-12.72,4.9-6.55,2.84-15.04,9.85-22.65,8.27-2.86-.59-4.25-1.99-7.12-1.66-2.27.26-3.85.97-6.32.87-2.19-.09-4.36-.19-6.58-.08-2.33.12-6.95-.27-4.36,3.55,1.41,2.08,4.39,1.26,6.43,2.57,2.7,1.74,2.19,2.28-.81,3.12-3.06.86-5.95-.21-8.28,2.27.83.71,2.21,1.06,2.92,1.94-2.25,1.57-5.3.68-7.84.56-2.92-.13-5.97.79-8.77.54.48-3.47-1.99-.92-3.03-.55-.63.23-3.08.82-3.61.71-2.1-.44-.45-.59-1.58-1.25-.1-.06-.49-1.05-.71-1.27-.41-.4-1.4-.05-1.92-.3-1.26-.58-2.33-1.33-3.74-1.12-2.42.37-7.22,4.61-8.45,6.43-1.02,1.51-2.51,4.82-2.62,6.65-.14,2.26-.05,1.95,1.98,2.9,2.13,1,2.15-.16,4.17.2,1.48.26,2.42.23,2.27,2.22-2.21.91-1.82,8.27.36,9.07-1.47,1.54-2.92,1.34-2.81,3.94.06,1.51,2.31,3.33,2.23,4.65-.2,3.22-4.82,3.71-5.63.45-3.29,1.14,3.58,5.65,4.49,6.47,1.53,1.38,4.05,1.96,3.11,4.72-.36,1.06-1.74.56-1.94,1.23-.25.86.58,1.11.5,1.76-.12.89-.29,3.25.08,4.01.85,1.76,2.54,1.16,3.63,2.56,2.14,2.77-.89,1.01-1.17,2.86-.37,2.43,2.48,1.48,3.96,1.7,2.32.35,4.54,1.42,7.01,1.73-.47,2.12-2.47,1.91-3.66,3.33.93.81,2.2,1.93,3.41,2.52,4.37-4.56,9.52.24,14.03,1.48-.1,4.81,3.53,8.31,8.22,8.68,2.11.16,4.17-.92,6.34-.84,1.78.07,3.35.88,5.16.51.56-1.87,1.61-3.55,2.02-5.44.55-2.55-.1-5.27,2.82-6.06,4.11-1.11,10.31,1.58,13.8,3.46,3.32,1.78,6.42,5.53,8.86,8.23.95,1.05,2.23,3.16,3.66,3.79,2.5,1.1,5.09-.84,7.47-1.47,4.57-1.21,9.54-.41,13.51-3.31,4.84-3.53,6.53-7.87,12.81-6.16,3.49.95,7.47,3.03,10.91,1.09,1.56-.88,6.92-7.61,8.11-2.54.72,3.06-4.52,5.55-4.81,8.31-.11,1.09,1.14,2.81,1.46,3.91.27.93.44,1.92.51,2.92-.95,1.06-2.06,4.55-1.91,6.81.14,2.07,1.47,3.69,1.4,5.91-.09,2.7-.4,3.47.34,6.04.52,1.8.86,3.61,1.16,5.46-.19.02-.37.05-.51.15-.52.36-.87,1.78-1.23,2.3-2.04,2.91-5.17,3.95-4.8,7.78.17,1.77.64,2.08-.19,3.96-1.03,2.31-2.13,4.52-3.05,6.86-.81,2.06-1.85,3.98-2.73,5.98-.1.23-.26.58-.43.99-.11.1-.22.19-.32.32-1.48,1.94-1.94,5.43-2.53,7.75-.4,1.59-1.09,3.19-1.53,4.81-.71,1.08-1.13,3.29-1.31,3.89-1,3.4-2.35,6.36-4.17,9.41-1.32,2.22-3.53,3.85-4.66,6.09-.08.17-.18.34-.28.5-1.49-.1-2.89,1.98-5.44,2.34-5.04.73-12.03.08-15.15.11-4.03.03-5.89-1.57-9.51-1.87-.02.92-.88,2.19-1.78,2.1-2.06-.72-4.65-2.27-5.73-4.78-.94-2.18,2.8-1.55-.4-4.3-2.31-1.98-5.16.74-7.38.93-6.51.57-12.92,2.6-19.13,4.32-6.05,1.68-12.46,7.96-18.91,7.19-4.29-.51-7.11-4.7-11.25-6.28-3.84-1.47-6.5-2.25-10.2-4.08-4.26-2.11-8.49-3.98-13.32-4.55-5.47-.64-10.19-.79-15.39-1.9-1.74-.37-3.98-.44-5.52-.74-1.64-.31-.53-3.66-4.36-1.28-5.31,3.3-.31,13.72-1.41,18.68-1.15,5.17-3.56,6.37-2.5,12.21,3.93,21.52-2.95,105.3-3.64,110.92-.95,7.66-1.66,15.72-2.02,23.38-.21,4.43-.77,7.4,2.47,9.87,4.29,3.27,16.76,3.81,22.1,3.97,18.79.55,38.06-2.54,56.99-2.54,5.59,0,13.19,2.1,18.24,1.39,1.42-.2,4.14-3.14,5.63-2.67,3.03.96.35,2.66,1.87,4.1,1.78,1.69,0,1.52,2.83,2.85,3.13,1.46,12.67-1.73,16.3-2.06,13.75-1.26,28.16-1.09,41.97-1.1,9.53,0,18.37,2.87,27.92,2.43,2.3-7.37-14.18-14.07-17.49-19.22-1.1-1.72-4.21-7.33-4.32-9.27-.16-2.71,1.49-2.43,1.73-4.36.75-6.13.23-4.07-4.54-8.82-5.96-5.94-5.33-14.8-9.6-21.64-4.59-7.37-11.77-14.03-15.29-21.98-1.92-4.33-2.28-9.71-3.56-14.35-1.88-6.79-3.9-8.7-8.64-13.87-2.09-2.28-4.55-12.21-6.87-19.45-1.95-6.1-4.27-9.71-1.58-11.09,2.6,2.74,2.49,6.51,4.19,9.36,2.46,4.14,4.75,5.83,6.41,10.8,2.71,8.13,9.32,15.28,17.47,19.16,2.48-7.64,2.72-11.91,5.72-19.31,1.24-3.06,2.29-9.22,2.83-11.38.02-.07.03-.16.04-.24.26.06.55.11.85.15.05.18.09.36.14.53-1.2,6.46-.73,14.3-1.92,19.73-.37,1.7-3.47,5.56-1.66,6.97,1.72,1.35,3.91-1.63,5.59-1.08,1.5.49,3.81,4.93,4.91,6.16,2.02,2.25,4.08,4.46,6.42,6.46,6.38,5.44,9.18,12.99,13.4,20.06,3.05,5.11,6.34,9.91,9.38,15.08,2.79,4.76,1.97,9.87,4.27,14.27,2.68,5.1,9.76,8.53,13.65,12.66,4.61,4.9,10.66,8.87,13.88,14.74,1.75,3.19,4.43,8.3,4.26,12.09-.14,3.25-2.04,5.41-1.09,8.83.86,3.11,2.58,5.55,2.61,9.21.02,2.53-1.4,6.01,1.14,7.66,5.89,3.82,5.12,11.15,11.81,13.11,7.03,2.06,12.17,7.46,15.59,13.96,4.38,8.32,6.97,15.03,13.9,21.45,4.57,4.24,8.73,9.58,12.54,14.38,3.11,3.93,6.63,7.74,9.51,11.56.24.32.43.65.6.98-.04,6.92-.05,13.55.53,20.6.33,4,1.03,5.33,2.62,8.9,2.06,4.61,1.73,9.6,3.28,14.31,1.09,3.32,3.7,5.83,4.63,8.91,1.06,3.51-.45,6.61.14,10.09,1.73,10.24,15.63,4.61,22.68,2.41,6.59-2.06,14.11-4.42,19.41-9.05,4.12-3.6,4.27-4.97,10.15-6.04,9.56-1.75,18-4.72,25.88-11.04,6.51-5.23,15.26-2.9,22.42-9.44,3.22-2.95,4.11-6.86,7.64-9.78,6.2-5.14,15.49-8.75,22.74-12.23,5.46-2.61,12.55-6.01,16.07-11.14,2.14-3.11,2.73-7.21,5.58-10.05,7.92-7.91,10.97-8.32,10.97-8.32-.04-.1-.09-.21-.13-.32,3.08-1.24,6.13-3.05,8.84-4.19,4.58-1.94,7.16-4.61,12.34-5.11,4.13-.4,10.47-.41,12.2-5.25,1.43-4-.65-6.95,2.63-10.77,2.2-2.56,4.88-4.51,8.06-5.72,2.73-1.03,5.86-.97,8.01-3.26,2.74-2.92,3.97-8.09,5.48-11.54,2.42-5.52,7.84-5.82,12.48-8.66,4.96-3.04,2.16-3.51.96-7.65-1.24-4.29.5-11.62.97-16.06.18-1.64,3.77-9.57,4.77-4.49,5.7,1.07,6.79-11.48,7.99-14.78,3.09-8.48,10.49-15.08,10.02-24.93-.18-3.76-.75-2.54-3.8-4.07-2.94-1.48-3.01-3.59-4.86-6.14-2.07-2.84-7.25-7.99-10.73-8.84-2.43-.6-5.59.24-8.02.35-3.3.15-6.57-.11-9.81.34-6.96-2.33-12.62-4.35-17.48-10.07-6.01-7.09-5.62-11.04-6.04-20.27-.1-2.3.59-8.38-1.43-9.92-3.06-2.33-3.86,2.97-5.01,5.01-.99,1.76-1.37,2.74-1.58,3.95-1.86,1.97-3.73,5.73-4.46,6.8-1.49,2.17-2.44,4.68-3.92,6.86-2.17,3.22-5.57,5.53-7.65,8.6-1.07,1.59-.94,3.14-1.41,5.05-.68,2.8-1.51,3.09-4.04,4.41-3.21,1.67-5.34,4.43-8.85,5.44-2.99.86-6.24,1.04-9.31,1.33-3.39.32-7.17.48-10.27,2.02-2.32,1.16-4.04,3.61-6.68,3.95-2.82.36-4.28-2.72-6.53-3.18-.6-1.51-.1-2.7-2.19-3.49-2.84.3-1.49-.16-3.12-2.05-.21-.24-.43-.42-.66-.58,1.13-1.2,1.89-3.05,2.38-4.47,1.06-3.12,1.86-6.05.31-9.14-.57-1.14-1.62-2.02-1.94-3.3-.32-1.29.23-2.58.27-3.86.07-2.1-.99-2.3-2.14-3.74-.74-.92-1-2.15-1.93-2.89-5.67-4.57-6.56,8.69-7.52,11.38-1.16,3.23.59,5.2.8,8.37.07,1.07-.32,2.07-.44,3.1-.48-.69-.97-1.37-1.5-1.92-1.6-1.65-3.61-2.79-5.18-4.47-2.03-2.17-4.07-6.41-4.96-9.28-1.64-5.28,1.32-10.44-1.83-15.18-2.33-3.51-5.5-3.28-8.84-5.37-3.43-2.15-7.58-4.79-10.23-7.83-1.17-1.34-2.16-2.06-3.55-3.11-1.7-1.29-2.18-2.79-3-4.72-1.16-2.74-1.94-5.76-4-7.86-.14-2.05-.56-4.01-1.66-5.62-1.71-2.48-3.57-5.49-5.5-7.68-.72-.82-1.42-1.47-2.5-1.82-1.09-.35-3.07.6-3.72-.56-1.27-2.25,3.59-4.58,4.99-4.92.95-.23,2.76.26,2.76-1.42,0-1.48-1.7-1.13-2.53-1.76-.12-.09-.22-.19-.32-.29.17-.82.3-1.66.68-2.12.79-.96,1.73-.55,2.65-1.07,2.22-.05,4.42-.44,5.82-1.28,2.95-1.76,2.55-5.43,6.25-5.18,3.18.21,2.86,4.22,6.91,3.93,1.47-.11,4.82-3.18,6.22-3.98,5.6,4.61,14.13,10.55,13.84,18.09,5.86,1.2,4.52,5.46,7.25,9.62,1.8,2.74,4.03,3.92,5.86,7.11,1.89,3.3.28,3.79,3.97,5.24,2.33.92,5.68-.61,8.13,0,3.29.81,3.15,1.56,5.94,3.49,5.69,3.94,11.86,3.15,18.74,5.73,6.15,2.3,10.75,3.93,17.5,2.66,9.47-1.79,14.55-11.69,23.99-14.96,20.23-7.02,8.98,19.71,23.62,22.49,4.24.81,9.73-1.7,13.97-1.59,3.85.1,7.07,1.39,11.09.84,4.05-.56,8.86-1.78,13.44-2.27,3.06-.33,5.56-.36,7.8-2.54,1.96,2.54,10.1,4.26,13,2.31,5.56-3.74.77-14.65,2.47-19.79,1.2-3.63,1.21-2.58,4.53-5.13,2.77-2.12,4.34-4,6.95-6.21,1.35-1.14,5.1-1.39,5.93-3.28.66-1.51-1.74-4.79-1.89-6.64Z"/>
          <g class="cls-7">
            <path class="cls-10" d="m565.79,423.07c2.92,1.12,9.03,1.24,11.87-.46,2.95-1.76,2.55-5.43,6.25-5.18,3.18.21,2.86,4.22,6.91,3.93,1.47-.11,4.82-3.18,6.22-3.98,5.6,4.61,14.13,10.55,13.84,18.09,5.86,1.2,4.52,5.47,7.25,9.62,1.8,2.74,4.03,3.92,5.86,7.11,1.89,3.3.28,3.79,3.97,5.24,2.33.92,5.68-.61,8.13,0,3.29.81,3.15,1.56,5.94,3.49,5.69,3.94,11.86,3.15,18.74,5.73,6.15,2.3,10.75,3.93,17.5,2.66,9.47-1.79,14.55-11.69,23.99-14.96,20.23-7.02,8.98,19.71,23.62,22.49,4.24.81,9.73-1.7,13.97-1.59,3.85.1,7.07,1.39,11.09.84,4.05-.56,8.86-1.78,13.44-2.27,3.06-.33,5.56-.36,7.8-2.54,1.96,2.54,10.1,4.26,13,2.31,5.55-3.74.77-14.65,2.47-19.79,1.2-3.63,1.21-2.58,4.53-5.13,2.77-2.12,4.34-4,6.95-6.21,1.35-1.14,5.1-1.39,5.93-3.28.66-1.51-1.74-4.79-1.89-6.64-8.5,1.48-7.18-17.05-14.9-21.32-3.6-1.99-8.44-1.12-11.88-3.1-3.76-2.16-12.08-11.79-13.31-15.7-2.55-8.17,7.41-13.46,6.46-21.21-.94-7.66-6.48-6.95-11.98-8.75-7.2-2.35-6.33-6.59-9.28-13.09-1.73-3.83-4.5-7.12-6.01-10.95-1.7-4.31.08-4.24-.07-7.31-.31-6.46-4.75-5.45-5.82-11.76-.81-4.79,1.55-5.12,2.72-9.04,1.57-5.26,1.79-12.45.94-17.87-1.33-8.47-4.18-22.93-13.61-23.75-5.75-.5-9.4-1.16-15.19-3.08-3.82-1.27-7.01-4.05-10.63-5.07-3.74-1.06-7.09,1.3-10.48,1.32-5.54.03-11.12-2.35-15.6-4.36-8.34-3.74-9.16-.97-15.72,3.22-5.04,3.22-9.36,2.45-13.68,6.88-2.47,2.53-7.97,7.82-9.52,10.95-.94,1.89.29,5.06-.4,6.39-2.85,5.5-4.15,1.33-7.56,1.97-10.65,2-21.8,14.33-33.12,9.97-2.66-1.03-5.53-3.27-8.1-4.56-3.03-1.53-6.06-5.08-8.42-6.14-3.26-1.47-7.76.75-11.01-.65-3.67-1.58-3.91-5.09-6.37-8.12-.77-.95-.48-2.34-.88-3.51-.32-.93-.41-2-.73-2.89-1.12-3.06-2.05-1.68-4.19-.71-1.2-.98-1.95-2.4-3.28-3.2-1.14-.68-2.64-1.11-3.67-2-3.58-3.09,2.46-2.74,1.93-5.2-.37-1.73-5.32-.75-4.2-4.07.46-1.36,2.86-.93,2.4-2.8-.3-1.23-3.98-3.62-5.04-4.08-2.47-1.08-4.18,1.07-6.11,2.68-3.24,2.72-5.51,5.89-8.25,9.06-1.2,1.38-2.56,3.33-4.23,4.17-2.4,1.2-5.78.36-8.24-.05-2.07-.35-4.48-.29-6.47-.97-1.86-.63-3.01-2.1-4.47-3.38-1.53-1.34-2.99-2.55-4.31-4.09-.91-1.06-1.46-2.53-2.42-3.46-1.15-1.12-2.8-1.1-4.41-.78-5.95,1.18-13.61,5.15-14.21,11.77-.31,3.42-.49,7.43-.1,10.85.51,4.42.49,10.28,2.39,14.27,1.01,2.12,2.31,3.89,2.97,6.18.62,2.14,1,4.3,1.76,6.41.9,2.51,1.87,4.97,2.51,7.57.4,1.63.38,4.54,1.64,5.72,5.4,5.05,8.15,15.49,11.14,21.52,4.56,9.2,7.74,19.25,12.89,28.12,6.45,11.12,13.66,22.83,21.93,32.61,8.56,10.12,21.44,15.64,28.8,25.97Z"/>
            <path class="cls-10" d="m566.53,429.2c2.32.34,1.74-3.12,2.66-4.23.86-1.04,1.88-.47,2.88-1.2,2.84-2.1-1.35-4.94-3.01-6.44-.75-.68-2.11-1.18-2.68-2-1.01-1.45-.31-3.98-.89-5.61-.98-2.77-4.45-2.32-5.57-4.76-1.67-3.63-.82-9.26-.82-13.19,0-3.15-2.23-3.39-4.25-5.56-1.6-1.72-2.66-4.14-4.23-5.77-1.74-1.79-4.94-1.15-7.33-2.31-3.49-1.69-5.17-4.16-9.09-4.7-1.38-.19-1.89.21-2.75-.82-1.29-1.55.02-2.38-.2-3.92-.38-2.67-3.19-5.01-5.3-6.82-2.17-1.86-4.73-3.33-6.05-6.03-1.3-2.69.53-4.19.34-7.15-.09-1.44-1.26-3.22-.85-4.69.12-.41,1.67-1.4,2.03-2.11.86-1.71.38-3.12,1.63-4.75.97-1.26,2.68-1.74,3.57-3.02,1.67-2.42-.27-3.77-.95-6.33-.67-2.54,2.09-4.08.12-5.83-1.27-1.12-4.28-1.04-5.91-1.79-2.89-1.34-5.45-1.98-7.2-4.44-3.31-4.65-6.83-10.33-9.26-15.41-.93-1.94-.95-3.83-2.95-4.91-3.53-1.9-9.35-.86-13.15-1.2-7.96-.72-15.7-1.57-23.15,2.37-6.07,3.21-9.99,9.1-13.94,14.51-6.12,8.38-12.01,17.13-17.43,25.98-6.36,10.39-13.2,19.79-15.31,31.92-1.15,6.61-1.44,13.49-.55,20.14.9,6.69,1.11,13.86,4.23,20,5.35,10.54,20.85,9.35,30.94,11.27,6.37,1.21,10.75,3.21,15.35,7.61,1.35,1.29,18.12,13.65,23.93,15.23,10.18,2.77,19.12,8.71,29.25,9.07,7.25.26,14.75-1.48,21.58-3.58,6.53-2.01,10.07-8.18,15.04-12.78,1.84-1.7,3.42-3.59,5.45-4.97,1.22-.83,2.81-.7,3.83-1.79Z"/>
            <path class="cls-10" d="m508.6,147.08c.53-2.38.38-4.79-.25-6.93-.32-1.1-1.58-2.82-1.46-3.91.29-2.77,5.54-5.25,4.81-8.31-1.19-5.07-6.55,1.66-8.11,2.54-3.44,1.94-7.41-.14-10.91-1.09-6.28-1.71-7.97,2.63-12.81,6.16-3.97,2.9-8.95,2.1-13.51,3.31-2.38.63-4.97,2.57-7.47,1.47-1.43-.63-2.71-2.73-3.66-3.79-2.43-2.71-5.53-6.45-8.86-8.23-3.49-1.87-9.69-4.56-13.8-3.46-2.92.79-2.27,3.51-2.82,6.06-.41,1.89-1.46,3.57-2.02,5.44-1.82.37-3.38-.45-5.16-.51-2.16-.08-4.22,1.01-6.34.84-4.69-.37-8.31-3.86-8.22-8.68-4.52-1.24-9.66-6.04-14.03-1.48-1.21-.59-2.48-1.72-3.41-2.52,1.19-1.42,3.2-1.21,3.66-3.33-2.47-.31-4.69-1.38-7.01-1.73-1.48-.22-4.33.73-3.96-1.7.28-1.85,3.32-.1,1.17-2.86-1.09-1.4-2.78-.8-3.63-2.56-.37-.76-.2-3.12-.08-4.01.08-.65-.75-.89-.5-1.76.2-.67,1.58-.17,1.94-1.23.94-2.77-1.58-3.35-3.11-4.72-.91-.81-7.78-5.33-4.49-6.47.81,3.27,5.44,2.77,5.63-.45.08-1.32-2.16-3.13-2.23-4.65-.11-2.6,1.34-2.4,2.81-3.94-2.17-.8-2.57-8.16-.36-9.07.15-1.98-.79-1.95-2.27-2.22-2.01-.36-2.03.8-4.17-.2-2.02-.94-2.12-.63-1.98-2.9.11-1.84,1.6-5.14,2.62-6.65,1.24-1.82,6.03-6.06,8.45-6.43,1.4-.22,2.48.54,3.74,1.12.53.24,1.51-.1,1.92.3.23.22.62,1.21.71,1.27,1.13.66-.52.81,1.58,1.25.53.11,2.98-.48,3.61-.71,1.04-.38,3.51-2.92,3.03.55,2.8.25,5.85-.67,8.77-.54,2.54.12,5.59,1,7.84-.56-.7-.88-2.09-1.24-2.92-1.94,2.33-2.48,5.22-1.4,8.28-2.27,3-.84,3.51-1.38.81-3.12-2.04-1.31-5.01-.49-6.43-2.57-2.59-3.82,2.03-3.43,4.36-3.55,2.21-.11,4.38,0,6.58.08,2.47.1,4.05-.61,6.32-.87,2.87-.33,4.26,1.07,7.12,1.66,7.6,1.58,16.1-5.43,22.65-8.27,3.97-1.72,8.51-3.97,12.72-4.9,4.67-1.03,9.86.45,14.61-.2,1.83-.25,6.55-2.73,8.09-.77.6.76-.41,2.55.01,3.44.74,1.54,3.74,2.78,5.4,3.04,3.86.6,6.9-2.04,9.21,1.94,1.94,3.34,2.79,4.83,7.54,4.8,1.94-.01,3.66-.7,5.57.07,2.47.99,2.45,3.38,4.17,4.71,3.56,2.75,12.62,3.33,17.04,2.57,2.95-.51,5.42-2.37,8.27-3.03,2.52-.58,5.01.23,7.53.4,3.35.22,5.88.33,8.8-1.28,3.13-1.72,5.78-4.28,8.93-6.01,3.68-2.01,6.67-3.47,10.71-3.21,4.71.31,5.75,1.5,8.74-1.8,2.07-2.28,3.67,1.26,6.39,3.07,2.26,1.5,6.27,1.27,7.81,2.78,4.33,4.27-1.93,18.52,5.83,18.9,2.33.11,4.03-.74,6.37-.15,2.87.73,3.86,2.88,6.54,3.8-.71,1.73-3.49,1.69-4.45,3.38-.75,1.33.28,3.09-.82,4.3-1.68,1.86-3.08-.25-3.4,2.79-.31,2.98,1.95,2.04,2.84,3.88.75,1.54.04,3.91.88,5.7.96,2.03,1.58,3.93,2.39,5.86.36.85,1.37.51,1.49,1.68.14,1.42-.85,1.51-1.28,2.53-.8,1.88-.8,3.32-1.15,5.32.91-.13,1.96-.27,2.93-.22.62,1.96.96,4.51,1.82,6.24.88,1.76,5.19,2.92,4.57,4.88-.35,1.08-3.2,1.12-3.91,1.53-.74.42-1.95,2.34-2.59,2.53-2.77.79-1.69-2.47-1.84-4.18-2.69-.4-3.52.98-6,1.51-1.62.35-4.06.05-5.79-.13-2.46-.26-4.45-.76-7-.28-3.14.6-5.15,2.52-7.9,4-3.17,1.69-6.37,2.76-9.17,4.99-5.14,4.09-10.75,6.14-16.67,9.02-8.13,3.97-17.33,8.49-26.24,10.27-9.32,1.86-18.3.97-27.54,4.1-3.18,1.08-5.18,1.97-8.54,1.97-2.19,0-3.36-1.92-5.36-1.69Z"/>
            <path class="cls-10" d="m667.1,653.73c5.04.21,10.58-3.63,15.16-5.57,4.58-1.94,7.16-4.61,12.34-5.11,4.13-.4,10.47-.41,12.2-5.25,1.43-4-.65-6.95,2.63-10.77,2.2-2.56,4.88-4.51,8.06-5.72,2.73-1.03,5.86-.97,8.01-3.26,2.74-2.92,3.97-8.09,5.48-11.54,2.42-5.52,7.84-5.82,12.48-8.66,4.96-3.04,2.16-3.51.96-7.65-1.24-4.29.5-11.62.97-16.06.18-1.64,3.77-9.57,4.77-4.49,5.7,1.07,6.79-11.48,7.99-14.78,3.09-8.48,10.49-15.08,10.02-24.93-.18-3.76-.75-2.54-3.8-4.07-2.94-1.48-3.01-3.59-4.86-6.14-2.07-2.84-7.25-7.99-10.73-8.84-2.43-.6-5.59.24-8.02.35-3.3.15-6.57-.11-9.81.34-6.96-2.33-12.62-4.35-17.48-10.07-6.01-7.09-5.62-11.04-6.04-20.27-.1-2.3.59-8.38-1.43-9.92-3.06-2.33-3.86,2.97-5.01,5.01-1.71,3.03-1.6,3.72-1.96,7.36-.51,5.16-2.63,9.17-4.96,13.7-9.76,19.04-3.33,41.99-15.46,60.55-5.08,7.77-12.46,13.28-19.95,18.44-6.98,4.8-14.65,11.38-16.8,19.91-1.76,6.98-1.27,12.66.29,19.43.86,3.71,2.16,16.25,5.12,18.85,5.49,4.84,11.19,18.79,19.83,19.16Z"/>
            <path class="cls-10" d="m755.29,330.88c-1.02-1.04-2.11-1.85-2.36-3.39-.24-1.43.53-2.77.44-4.22-.21-3.17-1.96-5.14-.8-8.37.96-2.68,1.85-15.94,7.52-11.38.92.74,1.19,1.96,1.93,2.89,1.15,1.44,2.21,1.65,2.14,3.74-.04,1.28-.59,2.57-.27,3.86.32,1.28,1.36,2.15,1.94,3.3,1.55,3.09.75,6.02-.31,9.14-.63,1.85-1.74,4.46-3.51,5.36-1.33.67-3.02.97-4.32.29-.86-.45-2.94-.77-2.39-1.23Z"/>
            <path class="cls-10" d="m709.81,273.43c-.02-4.05.68-9.02-1.65-12.41-1.71-2.48-3.57-5.49-5.5-7.68-.72-.82-1.42-1.47-2.5-1.82-1.09-.35-3.07.6-3.72-.56-1.27-2.25,3.59-4.58,4.99-4.92.95-.23,2.76.26,2.76-1.42,0-1.48-1.7-1.13-2.53-1.76-1.15-.87-1.08-2.15-1.94-3.06-1.38-1.48-3.01-.61-4.94-.67-2.75-.09-4.79-1.52-7.03.66-2.94,2.85-3.27,7.5-4.94,11.05-1.38,2.92-4.23,5.77-5.01,8.9-.58,2.32,1.31,5.58,2.75,7.37,4.74,5.92,14.49,1.54,20.86,4.44,2.15.98,6.64,3.78,8.41,1.88Z"/>
            <path class="cls-2" d="m363.18,438.48c-5.18,6.35-3.32,19.54-5.07,27.52-.37,1.7-3.47,5.56-1.66,6.97,1.72,1.35,3.91-1.63,5.59-1.08,1.5.49,3.81,4.93,4.91,6.16,2.02,2.25,4.08,4.46,6.42,6.46,6.38,5.44,9.18,12.99,13.4,20.06,3.05,5.11,6.34,9.91,9.38,15.08,2.79,4.76,1.97,9.87,4.27,14.27,2.68,5.1,9.76,8.53,13.65,12.66,4.61,4.9,10.66,8.87,13.88,14.74,1.75,3.19,4.43,8.3,4.26,12.09-.14,3.25-2.04,5.41-1.09,8.83.86,3.11,2.58,5.55,2.61,9.21.02,2.53-1.4,6.01,1.14,7.66,5.89,3.82,5.12,11.15,11.81,13.11,7.03,2.06,12.17,7.46,15.59,13.96,4.38,8.32,6.97,15.03,13.9,21.45,4.57,4.24,8.73,9.58,12.54,14.38,3.11,3.93,6.63,7.74,9.51,11.56,1.56,2.07,1.38,4.81,4.39,4.48,1.42-.15,3.91-3.87,4.05-5.17.46-4.35-5.46-7.99.71-11.8,2.03-1.25,4.17-1.02,6.61-.95,1.14.03,2.01,1.15,3.16.91,2.87-.59,4.72-3.96,7.55-4.84,4.27-1.32,8.37,1.54,12.75,1.59,2.96.03,5.56.47,8.43.46,7.69-.02,13.56-4.03,20.87.84,2.84,1.89,1.68,2.91,5.65,2.47,5.31-.58,5.77-4.28,7.52-8.33,4.4-10.17,12.09-19.9,22.57-24.16,23.51-9.55,49.05-15.86,71.38-28.02,5.31-2.89,9.53-6.53,15.23-8.78,4.45-1.76,10.43-2.25,12.53-7.21,1.77-4.17.7-10.13.89-14.58.26-6.05,1.35-11.49,2.26-17.39.87-5.69-2.12-12.1-8.45-13.32-3.96-.76-9.32.73-13.53.52-4.99-.25-10.12-.18-15.06-.41-7.63-.35-13.23.63-18.91-4.72-4.21-3.96-8.93-8.01-12.14-12.83-1.25-1.89-.16-3.34-2.6-4.27-2.84.3-1.49-.16-3.12-2.05-1.99-2.3-4.86-.69-7.3-1.61-2.31-.88-3.43-3.75-5.09-5.45-1.6-1.65-3.61-2.79-5.18-4.47-2.03-2.17-4.07-6.41-4.96-9.28-1.64-5.28,1.33-10.44-1.83-15.18-2.33-3.51-5.5-3.28-8.84-5.37-3.43-2.15-7.58-4.79-10.23-7.83-1.17-1.34-2.16-2.06-3.55-3.11-1.7-1.29-2.18-2.79-3-4.72-1.31-3.1-2.12-6.55-4.86-8.62-2.92,0-12.45,2.04-14.75.64-4.6-2.8,1.19-7.47-5.65-8.53-11.97-1.86-25.56-.44-37.72-.43-12.09.01-19.15-4.8-28.06-12.57-7.56-6.59-15.95-12.32-24.19-18.03-6.11-4.23-13.06-9.88-20.39-11.63-8.95-2.14-19.27-3.48-28.41-2.59-13.46,1.31-28.68,8.39-36.36,20-5.46,8.26-8.99,16.78-17.87,21.92.05.92-.04-.75.44-.68Z"/>
            <path class="cls-10" d="m491.63,255.57c-.12,3.29,1.83,6.36,1.6,9.29,3.08.24,5.97-.56,9.07.1,3.14.67,5.34,1.93,8.55.89,7.12-2.32,9.17-10.58,16.41-12.15,3.23-.7,5.32-.88,7.21-3.92.81-1.3.94-2.67,1.99-3.81,1.22-1.32,3.61-1.92,4.98-3.3,3.45-3.46-.76-3.28-3.54-5.41-2.89-2.21-4.86-4.73-7.01-7.62-1.33-1.79-3.57-3.53-2.22-5.52.93-1.38,3.01-1.3,4.37-1.58,2.97-.6,5.59-1.34,8.43-2.42,2.15-.82,21.55-6.08,20.25-10.05-.53-1.63-3.16-.62-4.07-2.72-.8-1.85.54-3.51.62-5.28.18-3.86-1.98-7.77-3.05-11.36-.52-1.74-.51-4.34-1.6-5.84-2.12-2.92-6.13-1.46-9.02-.04-5.86,2.87-10.32,5.82-16.83,6.86-5.82.93-12.4.72-17.76,3.31-4.49,2.17-7.47,5.16-9.39,9.72-2.67,6.32-6.05,14.09-6.86,20.83-1.48,12.23-5.7,23.7-2.11,30Z"/>
            <path class="cls-10" d="m503.08,200.86c1.45,1.15,3.23.38,4.7,1.11,1.48.73.94,1.72,2,2.98,1.28,1.52,4.64,1.94,6.71,2.71,2.6.96,5.49,1.81,8.04.55,2.3-1.14,4.19-3.61,6.21-5.19,3.08-2.42,6.73-4.11,9.96-6.35,3.37-2.34,6.2-5.34,9.7-7.5,4.16-2.56,8.47-4.96,12.73-7.31,5.64-3.11,11.43-6.58,16.64-10.33,3.44-2.48,5.67-4.55,7.35-8.46,2.01-4.68-.58-7.5.11-12.16.3-2,1.5-3.67,1.66-5.69.17-2.13-.63-2.88-1.32-4.69-.88-2.28-1.27-7.94.76-9.91,1.13-1.1,2.88-.88,4.17-1.43,1.68-.72,2.95-2.32,4.2-3.66,1.08-1.16,7.32-7.93,3.38-9.06-1.43-.41-5.37,2.46-6.85,3.03-1.97.75-4.46,1.63-6.54,1.66-2.16.03-4.18-.77-6.35-.83-3.16-.09-5.57,1.39-8.4,2.77-6.35,3.09-11.38,7.06-18.55,6.7-1.65-.08-2.68.05-4.07-.81-1.49-.92-2.19-2.74-3.81-3.48-4.72-2.15-9.52,1.63-13.48,3.67-4.68,2.41-5.01-.29-8.87-1.63-3.94-1.37-5.32,3.31-5.13,6.63.13,2.25,1.45,1.46-.56,3.31-.56.52-1.52-.07-2.01.47-.56.63.17,1.66-.17,2.31-.91,1.71-2.26,2.07-2.56,4.37-1.79.93-2.19-1.68-3.84-1.58-.95,1.03-2.08,4.56-1.93,6.84.14,2.08,1.47,3.69,1.4,5.91-.09,2.7-.4,3.47.34,6.04.53,1.82.87,3.66,1.18,5.54.33,2.04.41,3.96.62,6.08.43,4.5-1.1,5.97-2.77,9.98-.55,1.32-.6,2.8-1.26,4.07-1.13,2.18-4.32,3.82-4.96,6.2-.69,2.6,1.51,5.28,1.58,7.16Z"/>
            <path class="cls-10" d="m499.31,198.34c3.55-1.18,7.41-6.15,9.25-9.39.53-.93,1.27-1.82,1.57-2.83.28-.95-.01-1.86.37-2.81.8-2,3.22-2.64,4.4-4.6,1.07-1.78,3.03-3.18,3.91-4.99.82-1.68-.53-2.57-1.92-3.56-.7-.5-1.86-.86-2.23-1.71-.42-.98.55-1.64-.73-2.12-.99-.37-2.01.61-2.91.88-.56.16-1.24-.08-1.68.23-.52.36-.87,1.78-1.23,2.3-2.04,2.91-5.17,3.95-4.8,7.78.17,1.77.64,2.08-.19,3.96-1.03,2.31-2.13,4.52-3.05,6.86-.81,2.06-1.85,3.98-2.73,5.98-.43.99-1.88,4.03-1.33,5.17,1,2.1,2.81-.89,3.31-1.16Z"/>
            <path class="cls-10" d="m492.11,210.57c.09-2.42,1.34-4.82,1.94-7.18.59-2.33,1.05-5.82,2.53-7.75,1.49-1.95,3.96-.85,5.85-1.95,1.6-.94,2.4-4.05,4.51-4.1,1.92-.04,1.95,5.07,2.09,6.63.3,3.52-2.44,3.71-4.28,6.09-1.68,2.16-1.39,5.51-1.61,8.1-.18,2.18.26,6.24-1.46,7.88-1.1,1.05-3.47,1.29-4.88,1.16-1.93-.19-2.83-1.28-3.52-3.11-1.01-2.69-.32-5.39-1.15-5.76Z"/>
            <path class="cls-10" d="m491.09,260.86c.41.15,2.56.72,3.2.15.71-.63.37-2.81.49-3.66.25-1.85.78-3.48,1.33-5.25.74-2.39.91-4.86,1.35-7.32.34-1.94,0-3.97.83-5.74.85-1.82,2.11-3.32,2.47-5.34.3-1.68.04-3.46.13-5.17.05-.88.54-2.63.04-3.43-.85-1.38-2.91.02-3.96.38-1.21.41-2.31,0-3.54.07-.09-1.08.5-2.26,1.19-3.06.72-.83,2.73-1.51,3.18-2.42.91-1.85-1.97-1.8-2.65-2.79-.71-1.04-.3-3.47-.26-4.64.04-1.13.01-3.81-.93-4.72-1.61-1.56-2.48,3.25-2.75,4.18-1,3.4-2.35,6.36-4.17,9.41-1.32,2.22-3.53,3.85-4.66,6.09-1.03,2.05-3.03,4.1-3.62,6.31-.69,2.6.93,6.77,1.63,9.21,1.01,3.48,1.39,7.11,2.43,10.6.46,1.56.42,3.96,1.85,4.98,1.57,1.12,4.43,1.84,6.41,2.19Z"/>
            <path class="cls-10" d="m493.96,214.82c.33-1.14,1.56-1.7,2.09-2.73.37-.72.53-1.57.94-2.25,1.54-2.55,4.12-.27,5.47,1.11,1.14,1.16.95,2.04.9,3.62-.08,2.26-.13,4.51-.24,6.77-.09,1.91-.15,3.51-1.19,5.17-.55.89-1.53,1.33-2.38,1.89-.98.64-2.05,1.59-3.3,1.42-1.19-.16-3.24-1.16-3.39-2.5-.12-1.08.53-2.18.66-3.25.16-1.36.24-2.75.38-4.12.12-1.14.5-2.38.41-3.53-.04-.51-.18-.98-.33-1.61Z"/>
            <path class="cls-10" d="m398.67,234.15c-4.29-.51-7.11-4.7-11.25-6.28-3.84-1.47-6.5-2.25-10.2-4.08-4.26-2.11-8.49-3.98-13.32-4.55-5.47-.64-10.19-.79-15.39-1.9-1.74-.37-3.98-.44-5.52-.74-1.64-.31-.53-3.66-4.36-1.28-5.31,3.3-.31,13.72-1.41,18.68-1.15,5.17-3.56,6.37-2.5,12.21,3.93,21.52-2.95,105.3-3.64,110.92-.95,7.66-1.66,15.72-2.02,23.38-.21,4.43-.77,7.4,2.47,9.87,4.29,3.27,16.76,3.81,22.1,3.97,18.79.55,38.06-2.54,56.99-2.54,5.59,0,13.19,2.1,18.24,1.39,1.42-.2,4.14-3.14,5.63-2.67,3.03.96.35,2.66,1.87,4.1,1.78,1.69,0,1.52,2.83,2.85,3.13,1.46,12.67-1.73,16.3-2.06,13.75-1.26,28.16-1.09,41.97-1.1,9.53,0,18.37,2.87,27.92,2.43,2.3-7.37-14.18-14.07-17.49-19.22-1.1-1.72-4.21-7.33-4.32-9.27-.16-2.71,1.49-2.43,1.73-4.36.75-6.13.23-4.07-4.54-8.82-5.96-5.94-5.33-14.8-9.6-21.64-4.59-7.37-11.77-14.03-15.29-21.98-1.92-4.33-2.28-9.71-3.56-14.35-1.88-6.79-3.9-8.7-8.64-13.87-2.09-2.28-4.55-12.21-6.87-19.45-1.95-6.1-4.27-9.71-1.58-11.09,2.6,2.74,2.49,6.51,4.19,9.36,2.46,4.14,4.75,5.83,6.41,10.8,2.71,8.13,9.32,15.28,17.47,19.16,2.48-7.64,2.72-11.91,5.72-19.31,1.24-3.06,2.29-9.22,2.83-11.38.49-1.95-.84-8.26-3.79-16.94-2-5.86-5.8-16.3-5.8-16.3-1.55-.24-2.95,1.97-5.58,2.35-5.04.73-12.03.08-15.15.11-4.03.03-5.89-1.57-9.51-1.87-.02.92-.88,2.19-1.78,2.1-2.06-.72-4.65-2.27-5.73-4.78-.94-2.18,2.8-1.55-.4-4.3-2.31-1.98-5.16.74-7.38.93-6.51.57-12.92,2.6-19.13,4.32-6.05,1.68-12.46,7.96-18.91,7.19Z"/>
            <path class="cls-10" d="m633.59,522.24c4.1-2.74,5.44,2.99,9.22,2.5,2.65-.34,4.36-2.79,6.68-3.95,3.1-1.54,6.88-1.7,10.27-2.02,3.08-.29,6.32-.47,9.31-1.33,3.51-1.01,5.65-3.76,8.85-5.44,2.53-1.32,3.36-1.62,4.04-4.41.47-1.91.34-3.46,1.41-5.05,2.08-3.07,5.47-5.39,7.65-8.6,1.48-2.19,2.42-4.69,3.92-6.86,1.07-1.56,4.57-8.89,6.94-7.94,1.17.46.94,2.88,1.6,3.65.9,1.03,1.92.81,2.72,2.15,1.6,2.7,2.5,8.38.9,11.09-1.16,1.96-2.16,2.89-4.27,2.41-2.01-.46-3.19-2.55-3.39,1.38-.09,1.74-.11,7.59.75,8.97,1.08,1.74,4.56.22,3.71,3.45-4.09.72-6.04,3.26-6.45,7.06-.71,6.63-1.88,12.56-1.25,19.39.37,4.01.29,5.91-3.98,7.64-7.3,2.96-15.96,1.46-23.49.5-6.21-.79-13.91-1.2-19.4-4.72-2.71-1.74-4.54-4.49-6.63-6.9-2.91-3.37-5.87-7.72-9.1-12.95Z"/>
          </g>
          <path class="cls-6" d="m936.01,248.03c-8.5,1.48-7.18-17.05-14.9-21.32-3.6-1.99-8.44-1.12-11.88-3.1-3.76-2.16-12.08-11.79-13.31-15.7-2.55-8.17,7.41-13.46,6.46-21.21-.94-7.66-6.48-6.95-11.98-8.75-7.2-2.35-6.33-6.59-9.28-13.09-1.73-3.83-4.5-7.12-6.01-10.95-1.7-4.31.08-4.24-.07-7.31-.31-6.46-4.75-5.45-5.82-11.76-.81-4.79,1.55-5.12,2.72-9.04,1.57-5.26,1.79-12.45.94-17.87-1.33-8.47-4.18-22.93-13.61-23.75-5.75-.5-9.4-1.16-15.19-3.08-3.82-1.27-7.01-4.05-10.63-5.07-3.74-1.06-7.09,1.3-10.48,1.32-5.54.03-11.12-2.35-15.6-4.36-8.34-3.74-9.16-.97-15.72,3.22-5.04,3.22-9.36,2.45-13.68,6.88-2.47,2.53-7.97,7.82-9.52,10.95-.94,1.89.29,5.06-.4,6.39-2.85,5.5-4.15,1.33-7.56,1.97-10.65,2-21.8,14.33-33.11,9.97-2.66-1.03-5.53-3.27-8.1-4.56-3.03-1.53-6.06-5.08-8.42-6.14-3.26-1.47-7.76.75-11.01-.65-3.67-1.58-3.91-5.09-6.37-8.12-.77-.95-.48-2.34-.88-3.51-.32-.93-.41-2-.73-2.89-1.12-3.06-2.05-1.68-4.19-.71-1.2-.98-1.95-2.4-3.28-3.2-1.14-.68-2.64-1.11-3.67-2-3.58-3.09,2.46-2.74,1.93-5.2-.37-1.73-5.32-.75-4.2-4.07.46-1.36,2.86-.93,2.4-2.8-.3-1.23-3.98-3.62-5.04-4.08-2.47-1.08-4.18,1.07-6.11,2.68-3.24,2.72-5.51,5.89-8.25,9.06-1.2,1.38-2.56,3.33-4.23,4.17-2.4,1.2-5.78.36-8.24-.05-2.07-.35-4.48-.29-6.47-.97-1.86-.63-3.01-2.1-4.47-3.38-1.53-1.34-2.99-2.55-4.31-4.09-.91-1.06-1.46-2.53-2.42-3.46-.19-.18-.4-.33-.61-.45.26-.22.48-.48.62-.8-2.68-.92-3.67-3.07-6.54-3.8-2.33-.59-4.04.26-6.37.15-7.77-.38-1.5-14.63-5.83-18.9-1.53-1.51-5.54-1.27-7.81-2.78-2.72-1.81-4.32-5.35-6.39-3.07-2.99,3.29-4.03,2.11-8.74,1.8-4.03-.27-7.03,1.2-10.71,3.21-3.15,1.72-5.8,4.29-8.93,6.01-2.92,1.6-5.45,1.5-8.8,1.28-2.52-.17-5.01-.98-7.53-.4-2.85.66-5.32,2.52-8.27,3.03-4.42.76-13.48.18-17.04-2.57-1.72-1.33-1.7-3.72-4.17-4.71-1.91-.76-3.63-.08-5.57-.07-4.75.04-5.6-1.46-7.54-4.8-2.31-3.98-5.35-1.34-9.21-1.94-1.65-.26-4.65-1.5-5.4-3.04-.43-.88.58-2.68-.01-3.44-1.55-1.96-6.26.52-8.09.77-4.75.65-9.95-.83-14.61.2-4.21.93-8.75,3.17-12.72,4.9-6.55,2.84-15.04,9.85-22.65,8.27-2.86-.59-4.25-1.99-7.12-1.66-2.27.26-3.85.97-6.32.87-2.19-.09-4.36-.19-6.58-.08-2.33.12-6.95-.27-4.36,3.55,1.41,2.08,4.39,1.26,6.43,2.57,2.7,1.74,2.19,2.28-.81,3.12-3.06.86-5.95-.21-8.28,2.27.83.71,2.21,1.06,2.92,1.94-2.25,1.57-5.3.68-7.84.56-2.92-.13-5.97.79-8.77.54.48-3.47-1.99-.92-3.03-.55-.63.23-3.08.82-3.61.71-2.1-.44-.45-.59-1.58-1.25-.1-.06-.49-1.05-.71-1.27-.41-.4-1.4-.05-1.92-.3-1.26-.58-2.33-1.33-3.74-1.12-2.42.37-7.22,4.61-8.45,6.43-1.02,1.51-2.51,4.82-2.62,6.65-.14,2.26-.05,1.95,1.98,2.9,2.13,1,2.15-.16,4.17.2,1.48.26,2.42.23,2.27,2.22-2.21.91-1.82,8.27.36,9.07-1.47,1.54-2.92,1.34-2.81,3.94.06,1.51,2.31,3.33,2.23,4.65-.2,3.22-4.82,3.71-5.63.45-3.29,1.14,3.58,5.65,4.49,6.47,1.53,1.38,4.05,1.96,3.11,4.72-.36,1.06-1.74.56-1.94,1.23-.25.86.58,1.11.5,1.76-.12.89-.29,3.25.08,4.01.85,1.76,2.54,1.16,3.63,2.56,2.14,2.77-.89,1.01-1.17,2.86-.37,2.43,2.48,1.48,3.96,1.7,2.32.35,4.54,1.42,7.01,1.73-.47,2.12-2.47,1.91-3.66,3.33.93.81,2.2,1.93,3.41,2.52,4.37-4.56,9.52.24,14.03,1.48-.1,4.81,3.53,8.31,8.22,8.68,2.11.16,4.17-.92,6.34-.84,1.78.07,3.35.88,5.16.51.56-1.87,1.61-3.55,2.02-5.44.55-2.55-.1-5.27,2.82-6.06,4.11-1.11,10.31,1.58,13.8,3.46,3.32,1.78,6.42,5.53,8.86,8.23.95,1.05,2.23,3.16,3.66,3.79,2.5,1.1,5.09-.84,7.47-1.47,4.57-1.21,9.54-.41,13.51-3.31,4.84-3.53,6.53-7.87,12.81-6.16,3.49.95,7.47,3.03,10.91,1.09,1.56-.88,6.92-7.61,8.11-2.54.72,3.06-4.52,5.55-4.81,8.31-.11,1.09,1.14,2.81,1.46,3.91.27.93.44,1.92.51,2.92-.95,1.06-2.06,4.55-1.91,6.81.14,2.07,1.47,3.69,1.4,5.91-.09,2.7-.4,3.47.34,6.04.52,1.8.86,3.61,1.16,5.46-.19.02-.37.05-.51.15-.52.36-.87,1.78-1.23,2.3-2.04,2.91-5.17,3.95-4.8,7.78.17,1.77.64,2.08-.19,3.96-1.03,2.31-2.13,4.52-3.05,6.86-.81,2.06-1.85,3.98-2.73,5.98-.1.23-.26.58-.43.99-.11.1-.22.19-.32.32-1.48,1.94-1.94,5.43-2.53,7.75-.4,1.59-1.09,3.19-1.53,4.81-.71,1.08-1.13,3.29-1.31,3.89-1,3.4-2.35,6.36-4.17,9.41-1.32,2.22-3.53,3.85-4.66,6.09-.08.17-.18.34-.28.5-1.49-.1-2.89,1.98-5.44,2.34-5.04.73-12.03.08-15.15.11-4.03.03-5.89-1.57-9.51-1.87-.02.92-.88,2.19-1.78,2.1-2.06-.72-4.65-2.27-5.73-4.78-.94-2.18,2.8-1.55-.4-4.3-2.31-1.98-5.16.74-7.38.93-6.51.57-12.92,2.6-19.13,4.32-6.05,1.68-12.46,7.96-18.91,7.19-4.29-.51-7.11-4.7-11.25-6.28-3.84-1.47-6.5-2.25-10.2-4.08-4.26-2.11-8.49-3.98-13.32-4.55-5.47-.64-10.19-.79-15.39-1.9-1.74-.37-3.98-.44-5.52-.74-1.64-.31-.53-3.66-4.36-1.28-5.31,3.3-.31,13.72-1.41,18.68-1.15,5.17-3.56,6.37-2.5,12.21,3.93,21.52-2.95,105.3-3.64,110.92-.95,7.66-1.66,15.72-2.02,23.38-.21,4.43-.77,7.4,2.47,9.87,4.29,3.27,16.76,3.81,22.1,3.97,18.79.55,38.06-2.54,56.99-2.54,5.59,0,13.19,2.1,18.24,1.39,1.42-.2,4.14-3.14,5.63-2.67,3.03.96.35,2.66,1.87,4.1,1.78,1.69,0,1.52,2.83,2.85,3.13,1.46,12.67-1.73,16.3-2.06,13.75-1.26,28.16-1.09,41.97-1.1,9.53,0,18.37,2.87,27.92,2.43,2.3-7.37-14.18-14.07-17.49-19.22-1.1-1.72-4.21-7.33-4.32-9.27-.16-2.71,1.49-2.43,1.73-4.36.75-6.13.23-4.07-4.54-8.82-5.96-5.94-5.33-14.8-9.6-21.64-4.59-7.37-11.77-14.03-15.29-21.98-1.92-4.33-2.28-9.71-3.56-14.35-1.88-6.79-3.9-8.7-8.64-13.87-2.09-2.28-4.55-12.21-6.87-19.45-1.95-6.1-4.27-9.71-1.58-11.09,2.6,2.74,2.49,6.51,4.19,9.36,2.46,4.14,4.75,5.83,6.41,10.8,2.71,8.13,9.32,15.28,17.47,19.16,2.48-7.64,2.72-11.91,5.72-19.31,1.24-3.06,2.29-9.22,2.83-11.38.02-.07.03-.16.04-.24.26.06.55.11.85.15.05.18.09.36.14.53-1.2,6.46-.73,14.3-1.92,19.73-.37,1.7-3.47,5.56-1.66,6.97,1.72,1.35,3.91-1.63,5.59-1.08,1.5.49,3.81,4.93,4.91,6.16,2.02,2.25,4.08,4.46,6.42,6.46,6.38,5.44,9.18,12.99,13.4,20.06,3.05,5.11,6.34,9.91,9.38,15.08,2.79,4.76,1.97,9.87,4.27,14.27,2.68,5.1,9.76,8.53,13.65,12.66,4.61,4.9,10.66,8.87,13.88,14.74,1.75,3.19,4.43,8.3,4.26,12.09-.14,3.25-2.04,5.41-1.09,8.83.86,3.11,2.58,5.55,2.61,9.21.02,2.53-1.4,6.01,1.14,7.66,5.89,3.82,5.12,11.15,11.81,13.11,7.03,2.06,12.17,7.46,15.59,13.96,4.38,8.32,6.97,15.03,13.9,21.45,4.57,4.24,8.73,9.58,12.54,14.38,3.11,3.93,6.63,7.74,9.51,11.56.24.32.43.65.6.98-.04,6.92-.05,13.55.53,20.6.33,4,1.03,5.33,2.62,8.9,2.06,4.61,1.73,9.6,3.28,14.31,1.09,3.32,3.7,5.83,4.63,8.91,1.06,3.51-.45,6.61.14,10.09,1.73,10.24,15.63,4.61,22.68,2.41,6.59-2.06,14.11-4.42,19.41-9.05,4.12-3.6,4.27-4.97,10.15-6.04,9.56-1.75,18-4.72,25.88-11.04,6.51-5.23,15.26-2.9,22.42-9.44,3.22-2.95,4.11-6.86,7.64-9.78,6.2-5.14,15.49-8.75,22.74-12.23,5.46-2.61,12.55-6.01,16.07-11.14,2.14-3.11,2.73-7.21,5.58-10.05,7.92-7.91,10.97-8.32,10.97-8.32-.04-.1-.09-.21-.13-.32,3.08-1.24,6.13-3.05,8.84-4.19,4.58-1.94,7.16-4.61,12.34-5.11,4.13-.4,10.47-.41,12.2-5.25,1.43-4-.65-6.95,2.63-10.77,2.2-2.56,4.88-4.51,8.06-5.72,2.73-1.03,5.86-.97,8.01-3.26,2.74-2.92,3.97-8.09,5.48-11.54,2.42-5.52,7.84-5.82,12.48-8.66,4.96-3.04,2.16-3.51.96-7.65-1.24-4.29.5-11.62.97-16.06.18-1.64,3.77-9.57,4.77-4.49,5.7,1.07,6.79-11.48,7.99-14.78,3.09-8.48,10.49-15.08,10.02-24.93-.18-3.76-.75-2.54-3.8-4.07-2.94-1.48-3.01-3.59-4.86-6.14-2.07-2.84-7.25-7.99-10.73-8.84-2.43-.6-5.59.24-8.02.35-3.3.15-6.57-.11-9.81.34-6.96-2.33-12.62-4.35-17.48-10.07-6.01-7.09-5.62-11.04-6.04-20.27-.1-2.3.59-8.38-1.43-9.92-3.06-2.33-3.86,2.97-5.01,5.01-.99,1.76-1.37,2.74-1.58,3.95-1.86,1.97-3.73,5.73-4.46,6.8-1.49,2.17-2.44,4.68-3.92,6.86-2.17,3.22-5.57,5.53-7.65,8.6-1.07,1.59-.94,3.14-1.41,5.05-.68,2.8-1.51,3.09-4.04,4.41-3.21,1.67-5.34,4.43-8.85,5.44-2.99.86-6.24,1.04-9.31,1.33-3.39.32-7.17.48-10.27,2.02-2.32,1.16-4.04,3.61-6.68,3.95-2.82.36-4.28-2.72-6.53-3.18-.6-1.51-.1-2.7-2.19-3.49-2.84.3-1.49-.16-3.12-2.05-.21-.24-.43-.42-.66-.58,1.13-1.2,1.89-3.05,2.38-4.47,1.06-3.12,1.86-6.05.31-9.14-.57-1.14-1.62-2.02-1.94-3.3-.32-1.29.23-2.58.27-3.86.07-2.1-.99-2.3-2.14-3.74-.74-.92-1-2.15-1.93-2.89-5.67-4.57-6.56,8.69-7.52,11.38-1.16,3.23.59,5.2.8,8.37.07,1.07-.32,2.07-.44,3.1-.48-.69-.97-1.37-1.5-1.92-1.6-1.65-3.61-2.79-5.18-4.47-2.03-2.17-4.07-6.41-4.96-9.28-1.64-5.28,1.32-10.44-1.83-15.18-2.33-3.51-5.5-3.28-8.84-5.37-3.43-2.15-7.58-4.79-10.23-7.83-1.17-1.34-2.16-2.06-3.55-3.11-1.7-1.29-2.18-2.79-3-4.72-1.16-2.74-1.94-5.76-4-7.86-.14-2.05-.56-4.01-1.66-5.62-1.71-2.48-3.57-5.49-5.5-7.68-.72-.82-1.42-1.47-2.5-1.82-1.09-.35-3.07.6-3.72-.56-1.27-2.25,3.59-4.58,4.99-4.92.95-.23,2.76.26,2.76-1.42,0-1.48-1.7-1.13-2.53-1.76-.12-.09-.22-.19-.32-.29.17-.82.3-1.66.68-2.12.79-.96,1.73-.55,2.65-1.07,2.22-.05,4.42-.44,5.82-1.28,2.95-1.76,2.55-5.43,6.25-5.18,3.18.21,2.86,4.22,6.91,3.93,1.47-.11,4.82-3.18,6.22-3.98,5.6,4.61,14.13,10.55,13.84,18.09,5.86,1.2,4.52,5.46,7.25,9.62,1.8,2.74,4.03,3.92,5.86,7.11,1.89,3.3.28,3.79,3.97,5.24,2.33.92,5.68-.61,8.13,0,3.29.81,3.15,1.56,5.94,3.49,5.69,3.94,11.86,3.15,18.74,5.73,6.15,2.3,10.75,3.93,17.5,2.66,9.47-1.79,14.55-11.69,23.99-14.96,20.23-7.02,8.98,19.71,23.62,22.49,4.24.81,9.73-1.7,13.97-1.59,3.85.1,7.07,1.39,11.09.84,4.05-.56,8.86-1.78,13.44-2.27,3.06-.33,5.56-.36,7.8-2.54,1.96,2.54,10.1,4.26,13,2.31,5.56-3.74.77-14.65,2.47-19.79,1.2-3.63,1.21-2.58,4.53-5.13,2.77-2.12,4.34-4,6.95-6.21,1.35-1.14,5.1-1.39,5.93-3.28.66-1.51-1.74-4.79-1.89-6.64Z"/>
        </g>
      </g>
    </g>
    <polygon class="cls-1" points="0 596.98 841.89 598.69 841.89 0 0 0 0 596.98"/>
    <path class="cls-5" d="m526.91,300.49c-.17-1.18.75-2.29,2.06-2.48s2.51.6,2.69,1.78-.75,2.29-2.06,2.48-2.51-.6-2.69-1.78h0Z"/>
    <path class="cls-5" d="m576.13,390.49c-.17-1.18.75-2.29,2.06-2.48,1.31-.19,2.51.6,2.69,1.78s-.75,2.29-2.06,2.48-2.51-.6-2.69-1.78h0Z"/>
    <path class="cls-5" d="m724.16,316.71c-.17-1.18.75-2.29,2.06-2.48s2.51.6,2.69,1.78c.17,1.18-.75,2.29-2.06,2.48s-2.51-.6-2.69-1.78h0Z"/>
    <path class="cls-5" d="m668.2,354.52c-.17-1.18.75-2.29,2.06-2.48s2.51.6,2.69,1.78-.75,2.29-2.06,2.48-2.51-.6-2.69-1.78h0Z"/>
    <path class="cls-5" d="m648.55,343.16c-.34-2.28,1.45-4.43,3.98-4.8,2.54-.37,4.86,1.17,5.2,3.45s-1.45,4.43-3.98,4.8c-2.54.37-4.86-1.17-5.2-3.45h0Z"/>
    <g>
      <path class="cls-4" d="m652.07,320.08c-1.59-.08-3.06-.59-4.44-1.36-.88-.49-1.68-1.1-2.36-1.85-.84-.93-1.62-1.91-2.07-3.1-.21-.56-.55-1.09-.56-1.71,0-.48-.21-.91-.21-1.41,0-.4-.11-.83-.12-1.26-.03-1.35.32-2.62.82-3.86.62-1.52,1.57-2.83,2.81-3.88,1.37-1.17,2.93-2.01,4.75-2.3.35-.06.69-.16,1.04-.25.74,0,1.47,0,2.21,0,.56.23,1.17.26,1.75.42,1.59.44,2.99,1.23,4.21,2.35,1.2,1.11,2.1,2.41,2.7,3.93.29.75.48,1.52.59,2.32.38,2.81-.25,5.39-1.92,7.68-1.57,2.15-3.73,3.46-6.31,4.06-.44.1-.89.23-1.36.2-.5.06-1.01.16-1.51,0Z"/>
      <path class="cls-3" d="m652.07,320.08c.5.16,1.01.06,1.51,0,0,6.92,0,13.85,0,20.77,0,.38-.07.75-.09,1.13-.02.38-.41.61-.85.56-.35-.04-.6-.35-.58-.69,0-.2,0-.41,0-.61,0-7.05,0-14.1,0-21.16Z"/>
    </g>
    <g>
      <path class="cls-4" d="m670.48,341.57c-.93-.05-1.79-.35-2.6-.79-.52-.29-.98-.64-1.38-1.08-.49-.54-.95-1.12-1.21-1.81-.12-.33-.32-.64-.33-1,0-.28-.12-.53-.12-.82,0-.23-.07-.49-.07-.74-.02-.79.19-1.54.48-2.26.36-.89.92-1.66,1.64-2.27.8-.68,1.72-1.18,2.78-1.34.2-.03.4-.1.61-.15.43,0,.86,0,1.29,0,.33.13.68.15,1.02.25.93.26,1.75.72,2.47,1.38.7.65,1.23,1.41,1.58,2.3.17.44.28.89.35,1.36.22,1.65-.15,3.16-1.13,4.5-.92,1.26-2.18,2.03-3.69,2.38-.26.06-.52.14-.79.12-.3.04-.59.09-.89,0Z"/>
      <path class="cls-3" d="m670.48,341.57c.3.09.59.04.89,0,0,4.05,0,8.11,0,12.16,0,.22-.04.44-.05.66-.01.22-.24.36-.5.33-.2-.03-.35-.2-.34-.41,0-.12,0-.24,0-.36,0-4.13,0-8.26,0-12.39Z"/>
    </g>
    <g>
      <path class="cls-4" d="m577.61,379.15c-.93-.05-1.79-.35-2.6-.79-.52-.29-.98-.64-1.38-1.08-.49-.54-.95-1.12-1.21-1.81-.12-.33-.32-.64-.33-1,0-.28-.12-.53-.12-.82,0-.23-.07-.49-.07-.74-.02-.79.19-1.54.48-2.26.36-.89.92-1.66,1.64-2.27.8-.68,1.72-1.18,2.78-1.34.2-.03.4-.1.61-.15.43,0,.86,0,1.29,0,.33.13.68.15,1.02.25.93.26,1.75.72,2.47,1.38.7.65,1.23,1.41,1.58,2.3.17.44.28.89.35,1.36.22,1.65-.15,3.16-1.13,4.5-.92,1.26-2.18,2.03-3.69,2.38-.26.06-.52.14-.79.12-.3.04-.59.09-.89,0Z"/>
      <path class="cls-3" d="m577.61,379.15c.3.09.59.04.89,0,0,4.05,0,8.11,0,12.16,0,.22-.04.44-.05.66-.01.22-.24.36-.5.33-.2-.03-.35-.2-.34-.41,0-.12,0-.24,0-.36,0-4.13,0-8.26,0-12.39Z"/>
    </g>
    <g>
      <path class="cls-4" d="m529.33,289.15c-.93-.05-1.79-.35-2.6-.79-.52-.29-.98-.64-1.38-1.08-.49-.54-.95-1.12-1.21-1.81-.12-.33-.32-.64-.33-1,0-.28-.12-.53-.12-.82,0-.23-.07-.49-.07-.74-.02-.79.19-1.54.48-2.26.36-.89.92-1.66,1.64-2.27.8-.68,1.72-1.18,2.78-1.34.2-.03.4-.1.61-.15.43,0,.86,0,1.29,0,.33.13.68.15,1.02.25.93.26,1.75.72,2.47,1.38.7.65,1.23,1.41,1.58,2.3.17.44.28.89.35,1.36.22,1.65-.15,3.16-1.13,4.5-.92,1.26-2.18,2.03-3.69,2.38-.26.06-.52.14-.79.12-.3.04-.59.09-.89,0Z"/>
      <path class="cls-3" d="m529.33,289.15c.3.09.59.04.89,0,0,4.05,0,8.11,0,12.16,0,.22-.04.44-.05.66-.01.22-.24.36-.5.33-.2-.03-.35-.2-.34-.41,0-.12,0-.24,0-.36,0-4.13,0-8.26,0-12.39Z"/>
    </g>
    <g>
      <path class="cls-4" d="m726.18,304.23c-.93-.05-1.79-.35-2.6-.79-.52-.29-.98-.64-1.38-1.08-.49-.54-.95-1.12-1.21-1.81-.12-.33-.32-.64-.33-1,0-.28-.12-.53-.12-.82,0-.23-.07-.49-.07-.74-.02-.79.19-1.54.48-2.26.36-.89.92-1.66,1.64-2.27.8-.68,1.72-1.18,2.78-1.34.2-.03.4-.1.61-.15.43,0,.86,0,1.29,0,.33.13.68.15,1.02.25.93.26,1.75.72,2.47,1.38.7.65,1.23,1.41,1.58,2.3.17.44.28.89.35,1.36.22,1.65-.15,3.16-1.13,4.5-.92,1.26-2.18,2.03-3.69,2.38-.26.06-.52.14-.79.12-.3.04-.59.09-.89,0Z"/>
      <path class="cls-3" d="m726.18,304.23c.3.09.59.04.89,0,0,4.05,0,8.11,0,12.16,0,.22-.04.44-.05.66-.01.22-.24.36-.5.33-.2-.03-.35-.2-.34-.41,0-.12,0-.24,0-.36,0-4.13,0-8.26,0-12.39Z"/>
    </g>
  </g>
</svg>